<svg width="64" height="64" viewBox="0 0 64 64" fill="none" xmlns="http://www.w3.org/2000/svg">
<path fill-rule="evenodd" clip-rule="evenodd" d="M10.0299 54.3175C11.6711 42.8108 20.8825 34 32 34C43.1175 34 52.3289 42.8108 53.9701 54.3175C54.2585 56.3396 52.4206 58 50.1883 58L13.8117 58C11.5794 58 9.74149 56.3396 10.0299 54.3175ZM18 51C18 45.4772 24.268 41 32 41C39.732 41 46 45.4772 46 51L18 51Z" fill="#4971FE"/>
<path fill-rule="evenodd" clip-rule="evenodd" d="M53.9597 9.9862C52.1983 21.3438 43.037 30 32 30C20.963 30 11.8017 21.3438 10.0403 9.9862C9.70161 7.80255 11.547 6 13.7828 6H50.2172C52.453 6 54.2984 7.80255 53.9597 9.9862ZM23 22C24.1046 22 25 21.1046 25 20C25 18.8954 24.1046 18 23 18C21.8954 18 21 18.8954 21 20C21 21.1046 21.8954 22 23 22ZM43 20C43 21.1046 42.1046 22 41 22C39.8954 22 39 21.1046 39 20C39 18.8954 39.8954 18 41 18C42.1046 18 43 18.8954 43 20ZM32 26C33.6569 26 35 24.6569 35 23C35 21.3431 33.6569 20 32 20C30.3431 20 29 21.3431 29 23C29 24.6569 30.3431 26 32 26Z" fill="#12D2C7"/>
<path d="M31.9999 26C41.1812 26 48.7569 19.8898 49.8614 11.9946C50.0145 10.9007 49.1045 10 47.9999 10H15.9999C14.8954 10 13.9854 10.9007 14.1384 11.9946C15.243 19.8898 22.8187 26 31.9999 26Z" fill="url(#paint0_linear)"/>
<path d="M31.9999 34C22.8187 34 15.243 40.1102 14.1384 48.0054C13.9854 49.0993 14.8954 50 15.9999 50L47.9999 50C49.1045 50 50.0145 49.0993 49.8614 48.0054C48.7569 40.1102 41.1812 34 31.9999 34Z" fill="url(#paint1_linear)"/>
<defs>
<linearGradient id="paint0_linear" x1="31.9999" y1="10" x2="31.9999" y2="50" gradientUnits="userSpaceOnUse">
<stop stop-color="white" stop-opacity="0.6"/>
<stop offset="1" stop-color="white" stop-opacity="0.1"/>
</linearGradient>
<linearGradient id="paint1_linear" x1="31.9999" y1="10" x2="31.9999" y2="50" gradientUnits="userSpaceOnUse">
<stop stop-color="white" stop-opacity="0.6"/>
<stop offset="1" stop-color="white" stop-opacity="0.1"/>
</linearGradient>
</defs>
</svg>
