<svg width="64" height="64" viewBox="0 0 64 64" fill="none" xmlns="http://www.w3.org/2000/svg">
<path d="M28 10H14C9.58172 10 6 13.5817 6 18V32H28V10Z" fill="#03B8B8"/>
<path d="M6 36V50C6 54.4183 9.58172 58 14 58H28V36H6Z" fill="#03B8B8"/>
<path d="M32 58V36H54V50C54 54.4183 50.4183 58 46 58H32Z" fill="#03B8B8"/>
<path d="M36 6H50C54.4183 6 58 9.58172 58 14V28H36V6Z" fill="#90D105"/>
<path d="M14 16C14 12.6863 16.6863 10 20 10H48C51.3137 10 54 12.6863 54 16V44C54 47.3137 51.3137 50 48 50H20C16.6863 50 14 47.3137 14 44V16Z" fill="url(#paint0_linear)"/>
<defs>
<linearGradient id="paint0_linear" x1="34" y1="10" x2="34" y2="50" gradientUnits="userSpaceOnUse">
<stop stop-color="white" stop-opacity="0.6"/>
<stop offset="1" stop-color="white" stop-opacity="0.1"/>
</linearGradient>
</defs>
</svg>
